<svg width="132" height="151" viewBox="0 0 132 151" fill="none" xmlns="http://www.w3.org/2000/svg">
<mask id="mask0_236_572" style="mask-type:luminance" maskUnits="userSpaceOnUse" x="-1" y="0" width="133" height="151">
<path d="M132 0H-1.00002V150.644H132V0Z" fill="white"/>
</mask>
<g mask="url(#mask0_236_572)">
<path d="M-133.656 6.31093C-133.656 5.91402 -133.62 5.52152 -133.541 5.12903C-133.462 4.74094 -133.347 4.36167 -133.197 3.99563C-133.043 3.62519 -132.857 3.27679 -132.637 2.94603C-132.416 2.61527 -132.165 2.31098 -131.883 2.02873C-131.6 1.74649 -131.296 1.49511 -130.965 1.27461C-130.635 1.0541 -130.286 0.864468 -129.916 0.714524C-129.55 0.560172 -129.171 0.445509 -128.782 0.370537C-128.39 0.291155 -127.997 0.251465 -127.596 0.251465H126.205C126.606 0.251465 126.999 0.291155 127.387 0.370537C127.779 0.445509 128.158 0.560172 128.524 0.714524C128.895 0.864468 129.243 1.0541 129.574 1.27461C129.905 1.49511 130.209 1.74649 130.491 2.02873C130.774 2.31098 131.025 2.61527 131.245 2.94603C131.466 3.27679 131.651 3.62519 131.806 3.99563C131.955 4.36167 132.07 4.74094 132.149 5.12903C132.229 5.52152 132.264 5.91402 132.264 6.31093C132.26 9.26569 132.149 12.216 131.938 15.1576C131.722 18.1035 131.404 21.0362 130.985 23.9601C130.562 26.8796 130.037 29.7858 129.411 32.67C128.78 35.5542 128.053 38.412 127.219 41.2477C126.39 44.0789 125.459 46.8794 124.432 49.6489C123.4 52.414 122.275 55.1439 121.049 57.8296C119.828 60.5154 118.513 63.157 117.102 65.7501C115.691 68.3433 114.192 70.8835 112.6 73.3752C111.008 75.8625 109.332 78.288 107.568 80.6562C105.804 83.0245 103.96 85.3265 102.033 87.5669C100.11 89.8028 98.1036 91.9681 96.0264 94.0629C93.9449 96.1621 91.7927 98.1775 89.5701 100.122C87.3474 102.063 85.0585 103.924 82.7035 105.706C80.3442 107.487 77.9318 109.181 75.4534 110.79C72.9793 112.4 70.4479 113.917 67.868 115.346C65.2837 116.775 62.6509 118.111 59.9739 119.355C60.5737 119.549 61.1294 119.831 61.641 120.202C62.1525 120.572 62.5935 121.013 62.964 121.52C63.3388 122.032 63.6211 122.583 63.8195 123.183C64.018 123.783 64.115 124.396 64.1194 125.031V145.176C64.1194 145.573 64.0797 145.97 64.0048 146.358C63.9254 146.75 63.8107 147.13 63.6608 147.496C63.5064 147.862 63.3212 148.214 63.1007 148.545C62.8802 148.876 62.6288 149.18 62.3466 149.462C62.0643 149.745 61.76 149.996 61.4293 150.217C61.0985 150.437 60.7457 150.622 60.3797 150.777C60.0136 150.927 59.6344 151.041 59.2419 151.121C58.8538 151.196 58.4569 151.235 58.06 151.235H-59.4514C-59.8527 151.235 -60.2452 151.196 -60.6377 151.121C-61.0258 151.041 -61.405 150.927 -61.7711 150.777C-62.1415 150.622 -62.4899 150.437 -62.8207 150.217C-63.1514 149.996 -63.4557 149.745 -63.738 149.462C-64.0202 149.18 -64.2716 148.876 -64.4921 148.545C-64.7126 148.214 -64.8978 147.862 -65.0522 147.496C-65.2021 147.13 -65.3168 146.75 -65.3961 146.358C-65.4755 145.97 -65.5108 145.573 -65.5108 145.176V125.031C-65.5108 124.4 -65.4094 123.783 -65.2109 123.183C-65.0125 122.583 -64.7302 122.032 -64.3554 121.52C-63.9849 121.013 -63.5439 120.572 -63.0323 120.202C-62.5208 119.831 -61.9651 119.549 -61.3653 119.355C-64.0423 118.111 -66.6751 116.775 -69.2594 115.346C-71.8437 113.917 -74.3707 112.4 -76.8492 110.79C-79.3232 109.181 -81.74 107.487 -84.0949 105.706C-86.4499 103.924 -88.7388 102.063 -90.9615 100.122C-93.1841 98.1775 -95.3363 96.1621 -97.4178 94.0629C-99.4994 91.9681 -101.502 89.8028 -103.429 87.5669C-105.352 85.3265 -107.199 83.0245 -108.959 80.6562C-110.723 78.288 -112.399 75.8625 -113.991 73.3752C-115.583 70.8835 -117.082 68.3433 -118.494 65.7501C-119.905 63.157 -121.219 60.5154 -122.445 57.8296C-123.667 55.1439 -124.791 52.414 -125.823 49.6489C-126.851 46.8794 -127.781 44.0789 -128.615 41.2477C-129.444 38.412 -130.172 35.5542 -130.802 32.67C-131.428 29.7858 -131.953 26.8796 -132.377 23.9601C-132.8 21.0362 -133.118 18.1035 -133.329 15.1576C-133.545 12.216 -133.651 9.26569 -133.656 6.31093ZM-53.3963 131.086V139.116H52.0005V131.086H-53.3963ZM-8.88083 118.971H7.48943C9.27111 118.967 11.0484 118.923 12.8256 118.839C14.6073 118.751 16.3802 118.623 18.153 118.451C19.9215 118.283 21.6899 118.071 23.454 117.816C25.2136 117.56 26.9688 117.264 28.7152 116.929C30.466 116.59 32.2036 116.215 33.9323 115.796C35.6611 115.372 37.381 114.914 39.0921 114.415C40.7989 113.913 42.4923 113.37 44.177 112.793C45.8572 112.21 47.5242 111.589 49.178 110.932C50.8318 110.27 52.468 109.573 54.0909 108.832C55.7094 108.096 57.3102 107.32 58.8935 106.508C60.4767 105.692 62.0423 104.846 63.5858 103.955C65.1249 103.068 66.6464 102.147 68.1458 101.185C69.6453 100.228 71.1226 99.2315 72.5736 98.204C74.0289 97.1764 75.4534 96.1136 76.8558 95.0155C78.2582 93.9174 79.6341 92.7884 80.9836 91.6285C82.3331 90.4643 83.6517 89.2736 84.9439 88.0476C86.236 86.826 87.4973 85.5691 88.7321 84.2857C89.9626 83.0024 91.1665 81.6882 92.3352 80.3475C93.5039 79.0069 94.6461 77.6397 95.7486 76.2461C96.8555 74.8482 97.9272 73.4281 98.968 71.986C100.004 70.5395 101.01 69.0709 101.98 67.5759C102.946 66.0853 103.881 64.5682 104.776 63.0291C105.676 61.4944 106.536 59.9376 107.36 58.3588C108.181 56.78 108.97 55.1836 109.715 53.5695C110.465 51.951 111.175 50.3192 111.845 48.6699C112.516 47.0249 113.146 45.3579 113.737 43.682C114.328 42.0018 114.88 40.3083 115.396 38.606C115.907 36.8993 116.375 35.1838 116.807 33.4594C117.239 31.7307 117.627 29.9931 117.975 28.2467C118.324 26.5047 118.633 24.7495 118.897 22.9899C119.162 21.2303 119.387 19.4662 119.568 17.6934C119.748 15.9249 119.889 14.1477 119.986 12.3704H-121.378C-121.281 14.1477 -121.14 15.9249 -120.959 17.6934C-120.778 19.4662 -120.553 21.2303 -120.289 22.9899C-120.024 24.7495 -119.715 26.5047 -119.367 28.2467C-119.018 29.9931 -118.63 31.7307 -118.198 33.4594C-117.77 35.1838 -117.299 36.8993 -116.787 38.606C-116.275 40.3083 -115.72 42.0018 -115.129 43.682C-114.538 45.3579 -113.907 47.0249 -113.237 48.6699C-112.566 50.3192 -111.856 51.951 -111.107 53.5695C-110.361 55.1836 -109.576 56.78 -108.752 58.3588C-107.927 59.9376 -107.067 61.4944 -106.167 63.0291C-105.272 64.5682 -104.337 66.0853 -103.371 67.5759C-102.401 69.0709 -101.396 70.5395 -100.359 71.986C-99.3186 73.4281 -98.2469 74.8482 -97.14 76.2461C-96.0375 77.6397 -94.8997 79.0069 -93.7266 80.3475C-92.5579 81.6882 -91.354 83.0024 -90.1235 84.2857C-88.8887 85.5691 -87.6274 86.826 -86.3353 88.0476C-85.0431 89.2736 -83.7245 90.4643 -82.375 91.6285C-81.0255 92.7884 -79.6496 93.9174 -78.2472 95.0155C-76.8448 96.1136 -75.4203 97.1764 -73.9694 98.204C-72.514 99.2315 -71.0411 100.228 -69.5416 101.185C-68.0422 102.147 -66.5207 103.068 -64.9772 103.959C-63.4337 104.846 -61.8681 105.692 -60.2849 106.508C-58.7016 107.32 -57.1008 108.096 -55.4823 108.832C-53.8594 109.573 -52.2232 110.27 -50.5694 110.932C-48.92 111.589 -47.2486 112.21 -45.5684 112.793C-43.8837 113.37 -42.1902 113.913 -40.4836 114.415C-38.7724 114.914 -37.0569 115.377 -35.3237 115.796C-33.595 116.215 -31.8574 116.59 -30.1066 116.929C-28.3602 117.264 -26.605 117.56 -24.8454 117.816C-23.0813 118.071 -21.3173 118.283 -19.5444 118.451C-17.7716 118.623 -15.9987 118.751 -14.217 118.839C-12.4398 118.923 -10.6625 118.967 -8.88083 118.971Z" fill="white"/>
</g>
<mask id="mask1_236_572" style="mask-type:luminance" maskUnits="userSpaceOnUse" x="-1" y="28" width="105" height="73">
<path d="M103.07 28.1409H-0.999031V100.762H103.07V28.1409Z" fill="white"/>
</mask>
<g mask="url(#mask1_236_572)">
<path d="M-100.386 51.3732C-100.298 50.9542 -100.21 50.5441 -100.095 50.1384L-99.7426 48.9476C-99.5485 48.1626 -99.1957 47.4262 -98.9532 46.6941C-98.3181 45.2608 -97.6478 43.9245 -96.8363 42.6809C-95.994 41.4637 -95.1252 40.295 -94.0932 39.2587C-92.047 37.1771 -89.6479 35.4528 -86.8034 34.1871L-86.2697 33.9313L-85.7185 33.724C-85.3436 33.5873 -84.9688 33.4329 -84.5895 33.2918C-83.8133 33.0845 -83.0195 32.7714 -82.1816 32.5862C-81.3481 32.3745 -80.4881 32.2113 -79.584 32.0614C-78.68 31.9159 -77.745 31.81 -76.7395 31.6909C-78.1904 30.2974 -80.0339 29.358 -82.0052 28.7671C-82.9975 28.4672 -84.0162 28.3437 -85.0658 28.2026C-85.5862 28.1408 -86.111 28.1629 -86.6402 28.1541H-87.4384C-87.703 28.1629 -87.9632 28.2026 -88.2322 28.229C-92.4924 28.6215 -96.6423 30.7031 -99.6808 33.8431C-101.216 35.4042 -102.424 37.2653 -103.35 39.2278C-104.245 41.2123 -104.757 43.3468 -104.938 45.4681C-104.955 45.9973 -104.942 46.5353 -104.942 47.0601C-104.938 47.3247 -104.942 47.5849 -104.92 47.8495C-104.898 48.1097 -104.858 48.3743 -104.823 48.6345C-104.744 49.1549 -104.695 49.6665 -104.585 50.1736C-104.47 50.6808 -104.342 51.1791 -104.179 51.6687C-103.526 53.6223 -102.534 55.4305 -101.101 56.8417C-100.951 54.8395 -100.752 53.0534 -100.386 51.3732ZM98.372 51.3732C98.2837 50.9542 98.2 50.5441 98.0853 50.1384L97.7281 48.9476C97.5384 48.1626 97.1856 47.4262 96.9431 46.6941C96.308 45.2608 95.6333 43.9245 94.8262 42.6809C93.9795 41.4637 93.1107 40.295 92.0788 39.2587C90.0369 37.1771 87.6378 35.4528 84.7933 34.1871L84.2597 33.9313L83.704 33.724C83.3335 33.5873 82.9587 33.4329 82.575 33.2918C81.8032 33.0845 81.005 32.7714 80.1715 32.5862C79.338 32.3745 78.4736 32.2113 77.5696 32.0614C76.6699 31.9159 75.7305 31.81 74.7295 31.6909C76.1804 30.2974 78.0238 29.358 79.9951 28.7671C80.983 28.4672 82.0061 28.3437 83.0513 28.2026C83.5761 28.1408 84.0965 28.1629 84.6301 28.1541H85.4283C85.6929 28.1629 85.9531 28.2026 86.2177 28.229C90.4823 28.6215 94.6322 30.7031 97.6663 33.8431C99.2055 35.4042 100.409 37.2653 101.34 39.2278C102.235 41.2123 102.742 43.3468 102.923 45.4681C102.945 45.9973 102.932 46.5353 102.928 47.0601C102.923 47.3247 102.932 47.5849 102.91 47.8495C102.888 48.1097 102.844 48.3743 102.813 48.6345C102.734 49.1549 102.685 49.6665 102.575 50.1736C102.456 50.6808 102.328 51.1791 102.169 51.6687C101.516 53.6223 100.524 55.4305 99.0864 56.8417C98.9364 54.8395 98.7424 53.0534 98.372 51.3732ZM-89.6082 37.5431C-88.9775 38.4163 -88.3425 39.2851 -87.6898 40.1495L-86.7152 41.4461L-86.2256 42.0988L-85.7052 42.7206L-83.5928 45.1991L-82.5212 46.4295L-81.3922 47.6026C-79.8927 49.177 -78.3757 50.7514 -76.7484 52.2023L-74.3228 54.4161C-73.4893 55.1218 -72.6382 55.8053 -71.7958 56.5065C-69.5952 58.297 -60.2722 68.5328 -59.6989 69.2164C-59.1477 69.922 -58.5744 70.61 -58.0099 71.3068C-57.4454 72.0036 -56.8765 72.7048 -56.2635 73.3575C-51.4962 78.7378 -45.9747 83.536 -39.8756 87.5712C-39.1126 88.0696 -38.3541 88.5855 -37.5735 89.0662L-35.1965 90.451C-33.6221 91.3992 -31.9595 92.1842 -30.3013 93.0044C-26.9981 94.6406 -23.523 95.9327 -19.9993 97.1014C-19.1261 97.4234 -18.2132 97.6218 -17.3224 97.8688L-14.6234 98.5832C-12.8064 98.9669 -10.9895 99.3373 -9.1637 99.6681C-9.14606 99.6725 -9.12843 99.6769 -9.11079 99.6769L-6.35447 100.021C-5.42835 100.118 -4.50223 100.286 -3.56729 100.316L-0.766891 100.475L0.635529 100.559C1.103 100.577 1.57046 100.563 2.03793 100.559L4.84716 100.502C5.31463 100.488 5.78651 100.497 6.24957 100.458L7.65198 100.343C9.51745 100.171 11.3873 100.069 13.2307 99.7166L15.9959 99.2535C16.9176 99.1036 17.8216 98.8434 18.7301 98.645L21.4556 97.9967C22.3596 97.7585 23.2372 97.441 24.1237 97.1632L26.783 96.3032C27.6517 95.9813 28.5117 95.624 29.3761 95.2845C30.2361 94.9405 31.1004 94.6009 31.9516 94.2393C32.7895 93.8424 33.6186 93.4278 34.4477 93.0221L36.9306 91.7961C37.742 91.3595 38.5314 90.892 39.3252 90.4201L41.6935 89.0133C42.4829 88.5458 43.2194 87.9946 43.9823 87.4874C45.4906 86.4555 47.0076 85.4411 48.4012 84.2681L50.5313 82.5614L51.5853 81.7058C51.9293 81.4103 52.2556 81.0928 52.5908 80.7885C53.9094 79.5493 55.2633 78.3541 56.5378 77.0796L60.2114 73.137L60.648 72.6607C60.6569 72.6475 60.6657 72.6386 60.6789 72.6254L61.089 72.1227L61.9358 71.0819C62.5003 70.3851 73.6093 57.9795 75.7438 56.2199L77.0139 55.1835L77.6489 54.6675L78.2575 54.1207L80.6743 51.9156L83.0645 49.7018C83.8495 48.952 84.5816 48.1406 85.3357 47.36L87.5716 45.0006L88.6786 43.8143L89.7282 42.5706C89.7458 42.5486 89.7635 42.5265 89.7855 42.5045C90.4029 41.7415 89.4371 40.7272 88.6477 41.3049C88.6301 41.3182 88.6124 41.3314 88.5948 41.3402L87.3159 42.2972L85.984 43.1969L83.3512 45.0006C82.4736 45.6004 81.6136 46.2178 80.7272 46.7999L78.0326 48.4802L75.3645 50.1736L74.7162 50.5882C74.7074 50.597 74.6942 50.6014 74.6809 50.6102L74.0106 50.9851L72.6347 51.7613C65.3757 55.9906 57.8961 59.6862 50.152 62.5748C34.7079 68.427 18.4082 71.3994 2.07321 71.3377C-14.2529 71.2671 -30.6012 68.3123 -46.1115 62.5704C-61.6482 56.8593 -76.2765 48.4669 -89.6082 37.5431Z" fill="white"/>
</g>
</svg>
